<?xml version="1.0" encoding="UTF-8"?>
<!DOCTYPE svg PUBLIC "-//W3C//DTD SVG 1.1//EN" "http://www.w3.org/Graphics/SVG/1.1/DTD/svg11.dtd">
<!-- Creator: CorelDRAW -->
<svg xmlns="http://www.w3.org/2000/svg" xml:space="preserve" width="336.475mm" height="45.3132mm" version="1.1" style="shape-rendering:geometricPrecision; text-rendering:geometricPrecision; image-rendering:optimizeQuality; fill-rule:evenodd; clip-rule:evenodd"
viewBox="0 0 33066.62 4453.1"
 xmlns:xlink="http://www.w3.org/1999/xlink"
 xmlns:xodm="http://www.corel.com/coreldraw/odm/2003">
 <defs>
  <style type="text/css">
   <![CDATA[
    .str0 {stroke:black;stroke-width:7.49;stroke-linejoin:round;stroke-miterlimit:22.9256}
    .fil0 {fill:none;fill-rule:nonzero}
    .fil1 {fill:black;fill-rule:nonzero}
   ]]>
  </style>
 </defs>
 <g id="Camada_x0020_1">
  <metadata id="CorelCorpID_0Corel-Layer"/>
  <g>
   <path class="fil0 str0" d="M7352.98 460.75c0,10.36 -26.94,29.01 -81.86,58.03 -236.27,125.39 -444.56,305.7 -623.83,543 -180.31,236.27 -385.5,600 -615.55,1089.13 -335.75,711.91 -636.27,1223.83 -900.52,1535.75 -264.25,310.88 -589.64,534.72 -978.25,670.46 179.28,23.84 318.14,36.27 415.55,36.27 311.92,0 560.62,-66.32 748.19,-197.93 187.57,-132.64 451.81,-427.97 793.79,-888.08 22.8,-27.98 39.38,-42.48 51.81,-42.48 8.29,2.06 12.43,8.28 12.43,18.65 0,19.68 -95.34,150.26 -286.01,390.67 -233.16,294.3 -441.46,495.34 -623.83,602.07 -183.43,106.74 -409.33,160.63 -676.69,160.63 -165.8,0 -345.08,-17.62 -537.82,-52.85 -135.76,43.53 -274.62,65.28 -416.58,65.28 -106.74,0 -160.62,-19.68 -160.62,-59.06 0,-50.78 74.61,-75.65 224.87,-75.65 82.9,0 191.71,10.36 327.46,30.05l39.38 0c214.51,-76.68 396.9,-198.96 545.08,-365.8 149.22,-166.84 327.46,-448.71 535.75,-844.56 422.8,-803.11 758.56,-1372.02 1005.18,-1705.7 238.34,-319.17 525.39,-592.75 859.07,-819.69 167.88,-110.88 276.69,-166.84 324.35,-166.84 12.44,0 18.65,6.21 18.65,18.65zm1461.14 817.62c0,78.76 -8.28,154.4 -25.9,227.98 -17.62,73.58 -36.27,110.88 -53.88,110.88 -14.51,0 -21.77,-5.18 -21.77,-14.51 2.07,-8.29 4.15,-16.58 6.22,-24.87 30.05,-70.46 45.6,-165.81 45.6,-284.97 0,-269.43 -107.78,-497.41 -322.28,-684.98 -214.51,-187.57 -476.69,-280.83 -786.53,-280.83 -499.49,0 -1011.4,244.56 -1535.75,734.71 -207.26,191.71 -385.5,379.28 -534.72,560.62 -144.04,172.03 -424.88,535.76 -844.56,1092.23 -619.68,819.69 -1127.46,1331.61 -1524.35,1535.75 -178.24,91.2 -292.23,136.79 -343,136.79 -12.44,0 -18.65,-7.25 -18.65,-21.76 2.07,-2.07 22.8,-18.65 64.24,-48.7 197.93,-147.16 355.45,-346.12 473.58,-594.82 108.81,-229.02 305.7,-769.95 588.6,-1623.84 241.45,-728.5 517.1,-1250.78 826.94,-1565.8 11.4,-12.44 17.62,-22.8 17.62,-31.09 -25.9,-7.25 -86.01,36.27 -179.28,130.57 -300.51,300.52 -654.92,838.35 -1062.17,1615.55 -250.78,477.72 -470.47,840.42 -659.07,1086.01 -189.64,245.6 -414.51,462.18 -675.65,648.7 -429.01,307.77 -860.1,461.14 -1292.23,461.14 -281.86,0 -510.88,-59.06 -688.08,-177.2 -177.2,-118.13 -265.28,-270.47 -265.28,-456.99 0,-104.67 30.05,-193.79 91.19,-265.29 60.1,-71.5 136.79,-107.78 227.98,-107.78 131.61,0 196.89,64.25 196.89,193.79 0,66.32 -21.76,123.31 -64.24,169.94 -42.49,47.67 -94.3,71.5 -154.41,71.5 -99.48,0 -149.22,-53.88 -149.22,-162.69 0,-40.41 -8.29,-60.1 -24.87,-60.1 -32.13,0 -48.7,55.96 -48.7,166.84 0,164.77 82.9,300.52 247.67,407.26 164.77,105.7 376.16,158.55 635.23,158.55 528.5,0 1046.63,-274.62 1554.4,-822.81 204.14,-220.72 377.2,-435.23 519.18,-644.56 141.97,-209.33 423.83,-665.28 846.63,-1367.88 178.24,-297.41 379.28,-567.87 603.12,-810.36 222.8,-242.48 382.38,-364.76 477.72,-364.76 14.51,0 21.76,6.21 21.76,18.65 -2.07,8.28 -6.21,16.58 -12.43,24.87 -188.61,206.22 -358.55,595.85 -509.84,1167.87 -226.94,840.42 -440.41,1450.78 -641.45,1833.16 -197.93,373.07 -452.86,654.93 -764.78,846.64 -8.28,2.07 -12.43,6.22 -12.43,12.43 2.07,2.07 6.22,4.15 12.43,6.22 46.64,0 159.59,-64.25 339.9,-193.79 218.66,-154.4 420.73,-337.82 604.15,-552.33 184.46,-214.51 519.17,-653.88 1003.11,-1317.1 341.97,-468.39 613.47,-812.44 815.55,-1029.01 201.03,-217.62 423.83,-409.33 669.43,-575.14 382.38,-257 767.87,-385.49 1157.51,-385.49 339.9,0 619.69,98.44 839.39,296.37 219.69,197.92 329.53,449.74 329.53,754.41zm-4810.37 -170.99c0,44.56 -57,131.61 -173.06,261.14 -175.12,196.89 -343,295.33 -505.7,295.33 -111.92,0 -206.22,-41.45 -282.9,-123.31 -77.72,-81.86 -116.06,-182.39 -116.06,-301.55 0,-115.03 41.44,-253.89 124.35,-415.55 103.63,-202.07 155.44,-344.04 155.44,-426.94 0,-103.63 -48.7,-186.53 -146.11,-248.7 -96.37,-63.22 -223.83,-94.3 -381.34,-94.3 -451.82,0 -875.66,182.39 -1271.5,546.12 -396.9,364.76 -594.82,752.32 -594.82,1162.7 0,212.43 65.28,385.49 195.85,520.2 130.58,134.72 298.45,202.08 502.59,202.08 182.39,0 366.85,-51.82 554.41,-156.48 187.57,-103.63 338.86,-238.34 453.89,-402.08 8.28,-10.36 14.51,-15.54 18.65,-15.54 16.58,0 23.83,9.33 23.83,27.98 0,40.41 -64.25,118.13 -193.79,233.15 -267.35,241.46 -557.51,362.7 -869.43,362.7 -218.66,0 -397.93,-70.46 -535.75,-212.44 -137.83,-141.97 -206.23,-326.43 -206.23,-553.37 0,-439.37 203.11,-843.52 608.29,-1211.4 406.22,-368.91 849.74,-553.37 1331.61,-553.37 197.93,0 353.37,49.75 465.29,149.23 112.96,98.44 168.91,235.23 168.91,409.33 0,130.57 -64.25,327.46 -193.79,592.74 -44.56,93.27 -67.36,166.85 -67.36,221.76 0,154.41 82.9,231.09 249.74,231.09 99.48,0 210.36,-47.67 333.68,-143.01 123.31,-96.37 221.76,-213.47 297.42,-351.29 9.33,-20.73 19.68,-30.05 30.05,-30.05 16.58,0 23.83,7.25 23.83,23.83z"/>
  </g>
  <g>
   <path id="_1" class="fil0 str0" d="M8052.46 3358.16c0,46.63 -147.15,243.52 -439.37,590.67 -242.49,288.08 -435.23,432.13 -576.17,432.13 -89.12,0 -163.73,-36.27 -225.91,-107.78 -61.14,-71.5 -92.23,-157.51 -92.23,-259.07 0,-78.76 39.38,-188.6 118.13,-330.57l-60.09 81.87c-186.53,238.34 -323.32,397.93 -410.37,478.75 -95.34,91.2 -185.49,136.8 -270.46,136.8 -89.12,0 -163.73,-35.24 -224.88,-104.67 -61.14,-69.43 -91.19,-155.44 -91.19,-255.95 0,-117.1 45.6,-251.82 136.79,-403.11l553.37 -927.47c68.4,14.51 122.28,21.77 160.62,21.77 38.35,0 106.74,-7.26 206.22,-21.77l-723.31 1189.64c-73.58,121.24 -109.84,227.98 -109.84,321.25 0,91.19 38.34,136.79 116.06,136.79 204.14,0 532.64,-381.35 984.46,-1144.04l298.45 -503.63c63.21,14.51 115.02,21.77 157.51,21.77 50.78,0 122.28,-7.26 215.54,-21.77l-486.01 791.71c-231.09,376.17 -347.15,618.65 -347.15,725.39 0,87.05 41.45,130.58 124.36,130.58 161.66,0 423.83,-255.96 787.57,-768.91l94.3 -131.61 54.92 -66.32c10.37,-20.73 19.69,-31.08 30.05,-31.08 12.44,0 18.65,6.21 18.65,18.65z"/>
  </g>
  <g>
   <path id="_2" class="fil0 str0" d="M10483.55 3358.16c0,42.48 -147.16,239.38 -439.38,590.67 -240.42,288.08 -430.06,432.13 -566.84,432.13 -91.19,0 -166.84,-35.24 -229.02,-106.74 -61.14,-70.46 -92.22,-157.51 -92.22,-260.1 0,-91.19 18.65,-176.17 55.96,-253.89 38.34,-77.71 135.75,-232.12 294.3,-463.21 164.77,-242.48 246.63,-396.89 246.63,-464.24 0,-82.9 -43.52,-124.36 -130.57,-124.36 -295.34,0 -751.29,549.22 -1367.88,1647.68 -98.44,-8.29 -158.54,-12.44 -178.24,-12.44 -71.5,0 -137.82,4.15 -201.04,12.44l473.58 -751.3c268.4,-429.01 403.11,-697.41 403.11,-805.18 0,-61.15 -24.87,-91.2 -75.65,-91.2 -102.59,0 -304.66,218.66 -606.21,655.97 -18.65,26.94 -32.13,41.44 -42.49,43.52 -10.36,0 -16.58,-6.21 -18.65,-18.65 2.07,-10.36 6.22,-18.65 12.44,-24.86l58.03 -75.65c308.81,-415.55 516.05,-623.84 622.8,-623.84 69.43,0 127.46,31.09 176.17,94.3 48.7,62.18 72.54,137.83 72.54,224.87 0,129.53 -75.65,308.82 -227.98,539.9 239.38,-329.53 422.79,-555.43 551.3,-676.68 128.49,-121.24 246.63,-182.39 356.48,-182.39 88.08,0 163.72,36.27 223.83,108.81 61.15,73.58 91.2,163.73 91.2,270.47 0,135.76 -93.27,343 -279.8,622.8 -190.68,284.97 -286.02,467.36 -286.02,546.12 0,82.9 41.45,124.36 124.36,124.36 179.27,0 490.16,-322.28 930.57,-966.85 10.36,-20.73 19.68,-31.08 30.05,-31.08 12.43,0 18.65,6.21 18.65,18.65z"/>
  </g>
  <g>
   <path id="_3" class="fil0 str0" d="M13242.11 1241.06c-758.56,1206.22 -1236.27,1977.2 -1434.21,2312.95 -200,341.97 -300.51,557.52 -300.51,646.64 0,91.19 41.45,136.79 124.35,136.79 184.46,0 497.41,-322.28 939.9,-966.85 12.44,-20.73 22.8,-31.08 33.17,-31.08 12.43,0 18.65,6.21 18.65,18.65 -2.07,6.22 -12.44,22.8 -31.09,48.7l-130.57 179.27c-383.42,529.54 -666.33,794.83 -849.74,794.83 -93.26,0 -168.91,-35.24 -227.99,-104.67 -59.06,-70.46 -88.08,-159.59 -88.08,-268.4 0,-109.84 36.27,-236.27 109.85,-380.31 -353.37,502.59 -616.58,753.38 -788.61,753.38 -106.74,0 -196.89,-45.6 -269.43,-137.83 -72.54,-92.23 -108.81,-208.29 -108.81,-347.15 0,-333.68 207.25,-636.27 621.76,-906.73 329.54,-216.59 587.57,-324.36 776.18,-324.36 125.39,0 187.57,61.15 187.57,182.39 0,55.96 -17.62,120.21 -51.82,190.68l1083.94 -1815.55c66.32,20.73 132.65,31.08 196.89,31.08 16.59,0 79.8,-4.15 188.61,-12.43zm-1461.14 1627.98c0,-106.74 -49.75,-160.63 -149.23,-160.63 -181.34,0 -422.79,181.35 -721.24,545.08 -298.45,363.73 -447.67,656.99 -447.67,879.8 0,135.75 55.96,204.14 166.84,204.14 161.65,0 440.41,-281.87 835.23,-844.56 210.36,-304.67 316.07,-511.92 316.07,-623.83z"/>
  </g>
  <g>
   <path id="_4" class="fil0 str0" d="M14421.38 3358.16c0,32.13 -60.1,107.77 -179.27,226.94 -178.24,178.24 -341.97,267.35 -491.2,267.35 -63.21,0 -119.17,-12.43 -166.84,-36.26 -267.35,376.16 -518.13,564.77 -752.33,564.77 -122.27,0 -225.9,-49.75 -311.91,-150.26 -86.01,-99.48 -128.5,-219.69 -128.5,-359.59 0,-310.88 204.14,-611.4 613.47,-900.52 288.09,-204.14 524.36,-305.7 710.88,-305.7 174.09,0 261.14,93.27 261.14,278.76 0,233.16 -122.28,513.99 -366.84,841.45 40.41,23.84 86.01,36.27 135.75,36.27 91.2,0 197.93,-42.48 318.14,-127.46 121.24,-84.98 219.68,-186.53 296.37,-305.7 22.79,-27.98 38.34,-42.49 48.7,-42.49 8.28,0 12.43,4.15 12.43,12.44zm-488.09 -409.33c0,-164.77 -73.58,-246.63 -221.76,-246.63 -184.45,0 -408.29,176.17 -673.57,528.5 -265.29,353.36 -397.93,649.74 -397.93,891.2 0,139.89 66.32,209.32 200,209.32 218.65,0 458.03,-180.31 717.1,-540.94 -59.07,-65.28 -88.08,-131.6 -88.08,-201.03 0,-98.45 39.38,-201.04 118.13,-306.74 78.76,-105.69 155.44,-157.51 231.09,-157.51 32.12,0 53.88,19.69 66.32,60.1 32.13,-70.46 48.7,-149.22 48.7,-236.27z"/>
  </g>
  <g>
   <path id="_5" class="fil0 str0" d="M18284.61 1241.06c-758.56,1206.22 -1236.27,1977.2 -1434.21,2312.95 -200,341.97 -300.51,557.52 -300.51,646.64 0,91.19 41.45,136.79 124.35,136.79 184.46,0 497.41,-322.28 939.9,-966.85 12.44,-20.73 22.8,-31.08 33.17,-31.08 12.43,0 18.65,6.21 18.65,18.65 -2.07,6.22 -12.44,22.8 -31.09,48.7l-130.57 179.27c-383.42,529.54 -666.33,794.83 -849.74,794.83 -93.26,0 -168.91,-35.24 -227.99,-104.67 -59.06,-70.46 -88.08,-159.59 -88.08,-268.4 0,-109.84 36.27,-236.27 109.85,-380.31 -353.37,502.59 -616.58,753.38 -788.61,753.38 -106.74,0 -196.89,-45.6 -269.43,-137.83 -72.54,-92.23 -108.81,-208.29 -108.81,-347.15 0,-333.68 207.25,-636.27 621.76,-906.73 329.54,-216.59 587.57,-324.36 776.18,-324.36 125.39,0 187.57,61.15 187.57,182.39 0,55.96 -17.62,120.21 -51.82,190.68l1083.94 -1815.55c66.32,20.73 132.65,31.08 196.89,31.08 16.59,0 79.8,-4.15 188.61,-12.43zm-1461.14 1627.98c0,-106.74 -49.75,-160.63 -149.23,-160.63 -181.34,0 -422.79,181.35 -721.24,545.08 -298.45,363.73 -447.67,656.99 -447.67,879.8 0,135.75 55.96,204.14 166.84,204.14 161.65,0 440.41,-281.87 835.23,-844.56 210.36,-304.67 316.07,-511.92 316.07,-623.83z"/>
  </g>
  <g>
   <path id="_6" class="fil0 str0" d="M19799.63 3358.16c0,42.48 -148.19,239.38 -442.49,590.67 -238.34,288.08 -425.91,432.13 -563.74,432.13 -93.26,0 -168.91,-35.24 -226.94,-104.67 -59.06,-70.46 -88.08,-157.51 -88.08,-263.21 0,-108.81 32.13,-226.94 97.41,-354.4 -202.07,282.9 -356.47,474.61 -463.21,573.05 -107.77,99.48 -211.4,149.23 -312.95,149.23 -106.74,0 -196.89,-45.6 -269.43,-137.83 -72.54,-92.23 -108.81,-208.29 -108.81,-347.15 0,-388.6 273.57,-731.61 821.76,-1031.09 240.42,-133.68 434.19,-200.01 582.38,-200.01 125.39,0 187.57,61.15 187.57,182.39 0,35.23 -8.28,79.8 -23.83,136.79l154.41 -294.3c60.1,14.51 113.99,21.77 160.62,21.77 54.93,0 125.39,-7.26 212.44,-21.77l-535.76 889.12c-185.49,311.92 -278.75,517.1 -278.75,615.55 0,95.34 39.38,143.01 118.13,143.01 79.8,0 209.32,-93.27 386.53,-278.76 177.2,-186.52 357.51,-415.54 540.94,-688.08 12.43,-20.73 22.79,-31.08 33.16,-31.08 12.43,0 18.65,6.21 18.65,18.65zm-830.06 -500.52c0,-99.48 -45.59,-149.23 -136.79,-149.23 -186.52,0 -431.09,182.39 -733.67,547.16 -302.59,364.76 -453.89,659.06 -453.89,883.93 0,131.61 59.06,197.93 176.17,197.93 139.89,0 381.34,-232.12 726.42,-696.38 280.84,-380.31 421.76,-641.45 421.76,-783.42z"/>
  </g>
  <g>
   <path id="_7" class="fil0 str0" d="M28233.85 460.75c0,10.36 -26.94,29.01 -81.86,58.03 -236.27,125.39 -444.56,305.7 -623.83,543 -180.31,236.27 -385.5,600 -615.55,1089.13 -335.75,711.91 -636.27,1223.83 -900.52,1535.75 -264.25,310.88 -589.64,534.72 -978.25,670.46 179.28,23.84 318.14,36.27 415.55,36.27 311.92,0 560.62,-66.32 748.19,-197.93 187.57,-132.64 451.81,-427.97 793.79,-888.08 22.8,-27.98 39.38,-42.48 51.81,-42.48 8.29,2.06 12.43,8.28 12.43,18.65 0,19.68 -95.34,150.26 -286.01,390.67 -233.16,294.3 -441.46,495.34 -623.83,602.07 -183.43,106.74 -409.33,160.63 -676.69,160.63 -165.8,0 -345.08,-17.62 -537.82,-52.85 -135.76,43.53 -274.62,65.28 -416.58,65.28 -106.74,0 -160.62,-19.68 -160.62,-59.06 0,-50.78 74.61,-75.65 224.87,-75.65 82.9,0 191.71,10.36 327.46,30.05l39.38 0c214.51,-76.68 396.9,-198.96 545.08,-365.8 149.22,-166.84 327.46,-448.71 535.75,-844.56 422.8,-803.11 758.56,-1372.02 1005.18,-1705.7 238.34,-319.17 525.39,-592.75 859.07,-819.69 167.88,-110.88 276.69,-166.84 324.35,-166.84 12.44,0 18.65,6.21 18.65,18.65zm1461.14 817.62c0,78.76 -8.28,154.4 -25.9,227.98 -17.62,73.58 -36.27,110.88 -53.88,110.88 -14.51,0 -21.77,-5.18 -21.77,-14.51 2.07,-8.29 4.15,-16.58 6.22,-24.87 30.05,-70.46 45.6,-165.81 45.6,-284.97 0,-269.43 -107.78,-497.41 -322.28,-684.98 -214.51,-187.57 -476.69,-280.83 -786.53,-280.83 -499.49,0 -1011.4,244.56 -1535.75,734.71 -207.26,191.71 -385.5,379.28 -534.72,560.62 -144.04,172.03 -424.88,535.76 -844.56,1092.23 -619.68,819.69 -1127.46,1331.61 -1524.35,1535.75 -178.24,91.2 -292.23,136.79 -343,136.79 -12.44,0 -18.65,-7.25 -18.65,-21.76 2.07,-2.07 22.8,-18.65 64.24,-48.7 197.93,-147.16 355.45,-346.12 473.58,-594.82 108.81,-229.02 305.7,-769.95 588.6,-1623.84 241.45,-728.5 517.1,-1250.78 826.94,-1565.8 11.4,-12.44 17.62,-22.8 17.62,-31.09 -25.9,-7.25 -86.01,36.27 -179.28,130.57 -300.51,300.52 -654.92,838.35 -1062.17,1615.55 -250.78,477.72 -470.47,840.42 -659.07,1086.01 -189.64,245.6 -414.51,462.18 -675.65,648.7 -429.01,307.77 -860.1,461.14 -1292.23,461.14 -281.86,0 -510.88,-59.06 -688.08,-177.2 -177.2,-118.13 -265.28,-270.47 -265.28,-456.99 0,-104.67 30.05,-193.79 91.19,-265.29 60.1,-71.5 136.79,-107.78 227.98,-107.78 131.61,0 196.89,64.25 196.89,193.79 0,66.32 -21.76,123.31 -64.24,169.94 -42.49,47.67 -94.3,71.5 -154.41,71.5 -99.48,0 -149.22,-53.88 -149.22,-162.69 0,-40.41 -8.29,-60.1 -24.87,-60.1 -32.13,0 -48.7,55.96 -48.7,166.84 0,164.77 82.9,300.52 247.67,407.26 164.77,105.7 376.16,158.55 635.23,158.55 528.5,0 1046.63,-274.62 1554.4,-822.81 204.14,-220.72 377.2,-435.23 519.18,-644.56 141.97,-209.33 423.83,-665.28 846.63,-1367.88 178.24,-297.41 379.28,-567.87 603.12,-810.36 222.8,-242.48 382.38,-364.76 477.72,-364.76 14.51,0 21.76,6.21 21.76,18.65 -2.07,8.28 -6.21,16.58 -12.43,24.87 -188.61,206.22 -358.55,595.85 -509.84,1167.87 -226.94,840.42 -440.41,1450.78 -641.45,1833.16 -197.93,373.07 -452.86,654.93 -764.78,846.64 -8.28,2.07 -12.43,6.22 -12.43,12.43 2.07,2.07 6.22,4.15 12.43,6.22 46.64,0 159.59,-64.25 339.9,-193.79 218.66,-154.4 420.73,-337.82 604.15,-552.33 184.46,-214.51 519.17,-653.88 1003.11,-1317.1 341.97,-468.39 613.47,-812.44 815.55,-1029.01 201.03,-217.62 423.83,-409.33 669.43,-575.14 382.38,-257 767.87,-385.49 1157.51,-385.49 339.9,0 619.69,98.44 839.39,296.37 219.69,197.92 329.53,449.74 329.53,754.41zm-4810.37 -170.99c0,44.56 -57,131.61 -173.06,261.14 -175.12,196.89 -343,295.33 -505.7,295.33 -111.92,0 -206.22,-41.45 -282.9,-123.31 -77.72,-81.86 -116.06,-182.39 -116.06,-301.55 0,-115.03 41.44,-253.89 124.35,-415.55 103.63,-202.07 155.44,-344.04 155.44,-426.94 0,-103.63 -48.7,-186.53 -146.11,-248.7 -96.37,-63.22 -223.83,-94.3 -381.34,-94.3 -451.82,0 -875.66,182.39 -1271.5,546.12 -396.9,364.76 -594.82,752.32 -594.82,1162.7 0,212.43 65.28,385.49 195.85,520.2 130.58,134.72 298.45,202.08 502.59,202.08 182.39,0 366.85,-51.82 554.41,-156.48 187.57,-103.63 338.86,-238.34 453.89,-402.08 8.28,-10.36 14.51,-15.54 18.65,-15.54 16.58,0 23.83,9.33 23.83,27.98 0,40.41 -64.25,118.13 -193.79,233.15 -267.35,241.46 -557.51,362.7 -869.43,362.7 -218.66,0 -397.93,-70.46 -535.75,-212.44 -137.83,-141.97 -206.23,-326.43 -206.23,-553.37 0,-439.37 203.11,-843.52 608.29,-1211.4 406.22,-368.91 849.74,-553.37 1331.61,-553.37 197.93,0 353.37,49.75 465.29,149.23 112.96,98.44 168.91,235.23 168.91,409.33 0,130.57 -64.25,327.46 -193.79,592.74 -44.56,93.27 -67.36,166.85 -67.36,221.76 0,154.41 82.9,231.09 249.74,231.09 99.48,0 210.36,-47.67 333.68,-143.01 123.31,-96.37 221.76,-213.47 297.42,-351.29 9.33,-20.73 19.68,-30.05 30.05,-30.05 16.58,0 23.83,7.25 23.83,23.83z"/>
  </g>
  <g>
   <path id="_8" class="fil0 str0" d="M28784.11 3358.16c0,32.13 -60.1,107.77 -179.27,226.94 -178.24,178.24 -341.97,267.35 -491.2,267.35 -63.21,0 -119.17,-12.43 -166.84,-36.26 -267.35,376.16 -518.13,564.77 -752.33,564.77 -122.27,0 -225.9,-49.75 -311.91,-150.26 -86.01,-99.48 -128.5,-219.69 -128.5,-359.59 0,-310.88 204.14,-611.4 613.47,-900.52 288.09,-204.14 524.36,-305.7 710.88,-305.7 174.09,0 261.14,93.27 261.14,278.76 0,233.16 -122.28,513.99 -366.84,841.45 40.41,23.84 86.01,36.27 135.75,36.27 91.2,0 197.93,-42.48 318.14,-127.46 121.24,-84.98 219.68,-186.53 296.37,-305.7 22.79,-27.98 38.34,-42.49 48.7,-42.49 8.28,0 12.43,4.15 12.43,12.44zm-488.09 -409.33c0,-164.77 -73.58,-246.63 -221.76,-246.63 -184.45,0 -408.29,176.17 -673.57,528.5 -265.29,353.36 -397.93,649.74 -397.93,891.2 0,139.89 66.32,209.32 200,209.32 218.65,0 458.03,-180.31 717.1,-540.94 -59.07,-65.28 -88.08,-131.6 -88.08,-201.03 0,-98.45 39.38,-201.04 118.13,-306.74 78.76,-105.69 155.44,-157.51 231.09,-157.51 32.12,0 53.88,19.69 66.32,60.1 32.13,-70.46 48.7,-149.22 48.7,-236.27z"/>
  </g>
  <g>
   <path id="_9" class="fil0 str0" d="M31547.85 1241.06c-758.56,1206.22 -1236.27,1977.2 -1434.21,2312.95 -200,341.97 -300.51,557.52 -300.51,646.64 0,91.19 41.45,136.79 124.35,136.79 184.46,0 497.41,-322.28 939.9,-966.85 12.44,-20.73 22.8,-31.08 33.17,-31.08 12.43,0 18.65,6.21 18.65,18.65 -2.07,6.22 -12.44,22.8 -31.09,48.7l-130.57 179.27c-383.42,529.54 -666.33,794.83 -849.74,794.83 -93.26,0 -168.91,-35.24 -227.99,-104.67 -59.06,-70.46 -88.08,-159.59 -88.08,-268.4 0,-109.84 36.27,-236.27 109.85,-380.31 -353.37,502.59 -616.58,753.38 -788.61,753.38 -106.74,0 -196.89,-45.6 -269.43,-137.83 -72.54,-92.23 -108.81,-208.29 -108.81,-347.15 0,-333.68 207.25,-636.27 621.76,-906.73 329.54,-216.59 587.57,-324.36 776.18,-324.36 125.39,0 187.57,61.15 187.57,182.39 0,55.96 -17.62,120.21 -51.82,190.68l1083.94 -1815.55c66.32,20.73 132.65,31.08 196.89,31.08 16.59,0 79.8,-4.15 188.61,-12.43zm-1461.14 1627.98c0,-106.74 -49.75,-160.63 -149.23,-160.63 -181.34,0 -422.79,181.35 -721.24,545.08 -298.45,363.73 -447.67,656.99 -447.67,879.8 0,135.75 55.96,204.14 166.84,204.14 161.65,0 440.41,-281.87 835.23,-844.56 210.36,-304.67 316.07,-511.92 316.07,-623.83z"/>
  </g>
  <g>
   <path id="_10" class="fil0 str0" d="M33062.88 3358.16c0,42.48 -148.19,239.38 -442.49,590.67 -238.34,288.08 -425.91,432.13 -563.74,432.13 -93.26,0 -168.91,-35.24 -226.94,-104.67 -59.06,-70.46 -88.08,-157.51 -88.08,-263.21 0,-108.81 32.13,-226.94 97.41,-354.4 -202.07,282.9 -356.47,474.61 -463.21,573.05 -107.77,99.48 -211.4,149.23 -312.95,149.23 -106.74,0 -196.89,-45.6 -269.43,-137.83 -72.54,-92.23 -108.81,-208.29 -108.81,-347.15 0,-388.6 273.57,-731.61 821.76,-1031.09 240.42,-133.68 434.19,-200.01 582.38,-200.01 125.39,0 187.57,61.15 187.57,182.39 0,35.23 -8.28,79.8 -23.83,136.79l154.41 -294.3c60.1,14.51 113.99,21.77 160.62,21.77 54.93,0 125.39,-7.26 212.44,-21.77l-535.76 889.12c-185.49,311.92 -278.75,517.1 -278.75,615.55 0,95.34 39.38,143.01 118.13,143.01 79.8,0 209.32,-93.27 386.53,-278.76 177.2,-186.52 357.51,-415.54 540.94,-688.08 12.43,-20.73 22.79,-31.08 33.16,-31.08 12.43,0 18.65,6.21 18.65,18.65zm-830.06 -500.52c0,-99.48 -45.59,-149.23 -136.79,-149.23 -186.52,0 -431.09,182.39 -733.67,547.16 -302.59,364.76 -453.89,659.06 -453.89,883.93 0,131.61 59.06,197.93 176.17,197.93 139.89,0 381.34,-232.12 726.42,-696.38 280.84,-380.31 421.76,-641.45 421.76,-783.42z"/>
  </g>
  <path id="_11" class="fil1" d="M7352.98 460.75c0,10.36 -26.94,29.01 -81.86,58.03 -236.27,125.39 -444.56,305.7 -623.83,543 -180.31,236.27 -385.5,600 -615.55,1089.13 -335.75,711.91 -636.27,1223.83 -900.52,1535.75 -264.25,310.88 -589.64,534.72 -978.25,670.46 179.28,23.84 318.14,36.27 415.55,36.27 311.92,0 560.62,-66.32 748.19,-197.93 187.57,-132.64 451.81,-427.97 793.79,-888.08 22.8,-27.98 39.38,-42.48 51.81,-42.48 8.29,2.06 12.43,8.28 12.43,18.65 0,19.68 -95.34,150.26 -286.01,390.67 -233.16,294.3 -441.46,495.34 -623.83,602.07 -183.43,106.74 -409.33,160.63 -676.69,160.63 -165.8,0 -345.08,-17.62 -537.82,-52.85 -135.76,43.53 -274.62,65.28 -416.58,65.28 -106.74,0 -160.62,-19.68 -160.62,-59.06 0,-50.78 74.61,-75.65 224.87,-75.65 82.9,0 191.71,10.36 327.46,30.05l39.38 0c214.51,-76.68 396.9,-198.96 545.08,-365.8 149.22,-166.84 327.46,-448.71 535.75,-844.56 422.8,-803.11 758.56,-1372.02 1005.18,-1705.7 238.34,-319.17 525.39,-592.75 859.07,-819.69 167.88,-110.88 276.69,-166.84 324.35,-166.84 12.44,0 18.65,6.21 18.65,18.65zm1461.14 817.62c0,78.76 -8.28,154.4 -25.9,227.98 -17.62,73.58 -36.27,110.88 -53.88,110.88 -14.51,0 -21.77,-5.18 -21.77,-14.51 2.07,-8.29 4.15,-16.58 6.22,-24.87 30.05,-70.46 45.6,-165.81 45.6,-284.97 0,-269.43 -107.78,-497.41 -322.28,-684.98 -214.51,-187.57 -476.69,-280.83 -786.53,-280.83 -499.49,0 -1011.4,244.56 -1535.75,734.71 -207.26,191.71 -385.5,379.28 -534.72,560.62 -144.04,172.03 -424.88,535.76 -844.56,1092.23 -619.68,819.69 -1127.46,1331.61 -1524.35,1535.75 -178.24,91.2 -292.23,136.79 -343,136.79 -12.44,0 -18.65,-7.25 -18.65,-21.76 2.07,-2.07 22.8,-18.65 64.24,-48.7 197.93,-147.16 355.45,-346.12 473.58,-594.82 108.81,-229.02 305.7,-769.95 588.6,-1623.84 241.45,-728.5 517.1,-1250.78 826.94,-1565.8 11.4,-12.44 17.62,-22.8 17.62,-31.09 -25.9,-7.25 -86.01,36.27 -179.28,130.57 -300.51,300.52 -654.92,838.35 -1062.17,1615.55 -250.78,477.72 -470.47,840.42 -659.07,1086.01 -189.64,245.6 -414.51,462.18 -675.65,648.7 -429.01,307.77 -860.1,461.14 -1292.23,461.14 -281.86,0 -510.88,-59.06 -688.08,-177.2 -177.2,-118.13 -265.28,-270.47 -265.28,-456.99 0,-104.67 30.05,-193.79 91.19,-265.29 60.1,-71.5 136.79,-107.78 227.98,-107.78 131.61,0 196.89,64.25 196.89,193.79 0,66.32 -21.76,123.31 -64.24,169.94 -42.49,47.67 -94.3,71.5 -154.41,71.5 -99.48,0 -149.22,-53.88 -149.22,-162.69 0,-40.41 -8.29,-60.1 -24.87,-60.1 -32.13,0 -48.7,55.96 -48.7,166.84 0,164.77 82.9,300.52 247.67,407.26 164.77,105.7 376.16,158.55 635.23,158.55 528.5,0 1046.63,-274.62 1554.4,-822.81 204.14,-220.72 377.2,-435.23 519.18,-644.56 141.97,-209.33 423.83,-665.28 846.63,-1367.88 178.24,-297.41 379.28,-567.87 603.12,-810.36 222.8,-242.48 382.38,-364.76 477.72,-364.76 14.51,0 21.76,6.21 21.76,18.65 -2.07,8.28 -6.21,16.58 -12.43,24.87 -188.61,206.22 -358.55,595.85 -509.84,1167.87 -226.94,840.42 -440.41,1450.78 -641.45,1833.16 -197.93,373.07 -452.86,654.93 -764.78,846.64 -8.28,2.07 -12.43,6.22 -12.43,12.43 2.07,2.07 6.22,4.15 12.43,6.22 46.64,0 159.59,-64.25 339.9,-193.79 218.66,-154.4 420.73,-337.82 604.15,-552.33 184.46,-214.51 519.17,-653.88 1003.11,-1317.1 341.97,-468.39 613.47,-812.44 815.55,-1029.01 201.03,-217.62 423.83,-409.33 669.43,-575.14 382.38,-257 767.87,-385.49 1157.51,-385.49 339.9,0 619.69,98.44 839.39,296.37 219.69,197.92 329.53,449.74 329.53,754.41zm-4810.37 -170.99c0,44.56 -57,131.61 -173.06,261.14 -175.12,196.89 -343,295.33 -505.7,295.33 -111.92,0 -206.22,-41.45 -282.9,-123.31 -77.72,-81.86 -116.06,-182.39 -116.06,-301.55 0,-115.03 41.44,-253.89 124.35,-415.55 103.63,-202.07 155.44,-344.04 155.44,-426.94 0,-103.63 -48.7,-186.53 -146.11,-248.7 -96.37,-63.22 -223.83,-94.3 -381.34,-94.3 -451.82,0 -875.66,182.39 -1271.5,546.12 -396.9,364.76 -594.82,752.32 -594.82,1162.7 0,212.43 65.28,385.49 195.85,520.2 130.58,134.72 298.45,202.08 502.59,202.08 182.39,0 366.85,-51.82 554.41,-156.48 187.57,-103.63 338.86,-238.34 453.89,-402.08 8.28,-10.36 14.51,-15.54 18.65,-15.54 16.58,0 23.83,9.33 23.83,27.98 0,40.41 -64.25,118.13 -193.79,233.15 -267.35,241.46 -557.51,362.7 -869.43,362.7 -218.66,0 -397.93,-70.46 -535.75,-212.44 -137.83,-141.97 -206.23,-326.43 -206.23,-553.37 0,-439.37 203.11,-843.52 608.29,-1211.4 406.22,-368.91 849.74,-553.37 1331.61,-553.37 197.93,0 353.37,49.75 465.29,149.23 112.96,98.44 168.91,235.23 168.91,409.33 0,130.57 -64.25,327.46 -193.79,592.74 -44.56,93.27 -67.36,166.85 -67.36,221.76 0,154.41 82.9,231.09 249.74,231.09 99.48,0 210.36,-47.67 333.68,-143.01 123.31,-96.37 221.76,-213.47 297.42,-351.29 9.33,-20.73 19.68,-30.05 30.05,-30.05 16.58,0 23.83,7.25 23.83,23.83z"/>
  <path id="_12" class="fil1" d="M8052.46 3358.16c0,46.63 -147.15,243.52 -439.37,590.67 -242.49,288.08 -435.23,432.13 -576.17,432.13 -89.12,0 -163.73,-36.27 -225.91,-107.78 -61.14,-71.5 -92.23,-157.51 -92.23,-259.07 0,-78.76 39.38,-188.6 118.13,-330.57l-60.09 81.87c-186.53,238.34 -323.32,397.93 -410.37,478.75 -95.34,91.2 -185.49,136.8 -270.46,136.8 -89.12,0 -163.73,-35.24 -224.88,-104.67 -61.14,-69.43 -91.19,-155.44 -91.19,-255.95 0,-117.1 45.6,-251.82 136.79,-403.11l553.37 -927.47c68.4,14.51 122.28,21.77 160.62,21.77 38.35,0 106.74,-7.26 206.22,-21.77l-723.31 1189.64c-73.58,121.24 -109.84,227.98 -109.84,321.25 0,91.19 38.34,136.79 116.06,136.79 204.14,0 532.64,-381.35 984.46,-1144.04l298.45 -503.63c63.21,14.51 115.02,21.77 157.51,21.77 50.78,0 122.28,-7.26 215.54,-21.77l-486.01 791.71c-231.09,376.17 -347.15,618.65 -347.15,725.39 0,87.05 41.45,130.58 124.36,130.58 161.66,0 423.83,-255.96 787.57,-768.91l94.3 -131.61 54.92 -66.32c10.37,-20.73 19.69,-31.08 30.05,-31.08 12.44,0 18.65,6.21 18.65,18.65z"/>
  <path id="_13" class="fil1" d="M10483.55 3358.16c0,42.48 -147.16,239.38 -439.38,590.67 -240.42,288.08 -430.06,432.13 -566.84,432.13 -91.19,0 -166.84,-35.24 -229.02,-106.74 -61.14,-70.46 -92.22,-157.51 -92.22,-260.1 0,-91.19 18.65,-176.17 55.96,-253.89 38.34,-77.71 135.75,-232.12 294.3,-463.21 164.77,-242.48 246.63,-396.89 246.63,-464.24 0,-82.9 -43.52,-124.36 -130.57,-124.36 -295.34,0 -751.29,549.22 -1367.88,1647.68 -98.44,-8.29 -158.54,-12.44 -178.24,-12.44 -71.5,0 -137.82,4.15 -201.04,12.44l473.58 -751.3c268.4,-429.01 403.11,-697.41 403.11,-805.18 0,-61.15 -24.87,-91.2 -75.65,-91.2 -102.59,0 -304.66,218.66 -606.21,655.97 -18.65,26.94 -32.13,41.44 -42.49,43.52 -10.36,0 -16.58,-6.21 -18.65,-18.65 2.07,-10.36 6.22,-18.65 12.44,-24.86l58.03 -75.65c308.81,-415.55 516.05,-623.84 622.8,-623.84 69.43,0 127.46,31.09 176.17,94.3 48.7,62.18 72.54,137.83 72.54,224.87 0,129.53 -75.65,308.82 -227.98,539.9 239.38,-329.53 422.79,-555.43 551.3,-676.68 128.49,-121.24 246.63,-182.39 356.48,-182.39 88.08,0 163.72,36.27 223.83,108.81 61.15,73.58 91.2,163.73 91.2,270.47 0,135.76 -93.27,343 -279.8,622.8 -190.68,284.97 -286.02,467.36 -286.02,546.12 0,82.9 41.45,124.36 124.36,124.36 179.27,0 490.16,-322.28 930.57,-966.85 10.36,-20.73 19.68,-31.08 30.05,-31.08 12.43,0 18.65,6.21 18.65,18.65z"/>
  <path id="_14" class="fil1" d="M13242.11 1241.06c-758.56,1206.22 -1236.27,1977.2 -1434.21,2312.95 -200,341.97 -300.51,557.52 -300.51,646.64 0,91.19 41.45,136.79 124.35,136.79 184.46,0 497.41,-322.28 939.9,-966.85 12.44,-20.73 22.8,-31.08 33.17,-31.08 12.43,0 18.65,6.21 18.65,18.65 -2.07,6.22 -12.44,22.8 -31.09,48.7l-130.57 179.27c-383.42,529.54 -666.33,794.83 -849.74,794.83 -93.26,0 -168.91,-35.24 -227.99,-104.67 -59.06,-70.46 -88.08,-159.59 -88.08,-268.4 0,-109.84 36.27,-236.27 109.85,-380.31 -353.37,502.59 -616.58,753.38 -788.61,753.38 -106.74,0 -196.89,-45.6 -269.43,-137.83 -72.54,-92.23 -108.81,-208.29 -108.81,-347.15 0,-333.68 207.25,-636.27 621.76,-906.73 329.54,-216.59 587.57,-324.36 776.18,-324.36 125.39,0 187.57,61.15 187.57,182.39 0,55.96 -17.62,120.21 -51.82,190.68l1083.94 -1815.55c66.32,20.73 132.65,31.08 196.89,31.08 16.59,0 79.8,-4.15 188.61,-12.43zm-1461.14 1627.98c0,-106.74 -49.75,-160.63 -149.23,-160.63 -181.34,0 -422.79,181.35 -721.24,545.08 -298.45,363.73 -447.67,656.99 -447.67,879.8 0,135.75 55.96,204.14 166.84,204.14 161.65,0 440.41,-281.87 835.23,-844.56 210.36,-304.67 316.07,-511.92 316.07,-623.83z"/>
  <path id="_15" class="fil1" d="M14421.38 3358.16c0,32.13 -60.1,107.77 -179.27,226.94 -178.24,178.24 -341.97,267.35 -491.2,267.35 -63.21,0 -119.17,-12.43 -166.84,-36.26 -267.35,376.16 -518.13,564.77 -752.33,564.77 -122.27,0 -225.9,-49.75 -311.91,-150.26 -86.01,-99.48 -128.5,-219.69 -128.5,-359.59 0,-310.88 204.14,-611.4 613.47,-900.52 288.09,-204.14 524.36,-305.7 710.88,-305.7 174.09,0 261.14,93.27 261.14,278.76 0,233.16 -122.28,513.99 -366.84,841.45 40.41,23.84 86.01,36.27 135.75,36.27 91.2,0 197.93,-42.48 318.14,-127.46 121.24,-84.98 219.68,-186.53 296.37,-305.7 22.79,-27.98 38.34,-42.49 48.7,-42.49 8.28,0 12.43,4.15 12.43,12.44zm-488.09 -409.33c0,-164.77 -73.58,-246.63 -221.76,-246.63 -184.45,0 -408.29,176.17 -673.57,528.5 -265.29,353.36 -397.93,649.74 -397.93,891.2 0,139.89 66.32,209.32 200,209.32 218.65,0 458.03,-180.31 717.1,-540.94 -59.07,-65.28 -88.08,-131.6 -88.08,-201.03 0,-98.45 39.38,-201.04 118.13,-306.74 78.76,-105.69 155.44,-157.51 231.09,-157.51 32.12,0 53.88,19.69 66.32,60.1 32.13,-70.46 48.7,-149.22 48.7,-236.27z"/>
  <path id="_16" class="fil1" d="M18284.61 1241.06c-758.56,1206.22 -1236.27,1977.2 -1434.21,2312.95 -200,341.97 -300.51,557.52 -300.51,646.64 0,91.19 41.45,136.79 124.35,136.79 184.46,0 497.41,-322.28 939.9,-966.85 12.44,-20.73 22.8,-31.08 33.17,-31.08 12.43,0 18.65,6.21 18.65,18.65 -2.07,6.22 -12.44,22.8 -31.09,48.7l-130.57 179.27c-383.42,529.54 -666.33,794.83 -849.74,794.83 -93.26,0 -168.91,-35.24 -227.99,-104.67 -59.06,-70.46 -88.08,-159.59 -88.08,-268.4 0,-109.84 36.27,-236.27 109.85,-380.31 -353.37,502.59 -616.58,753.38 -788.61,753.38 -106.74,0 -196.89,-45.6 -269.43,-137.83 -72.54,-92.23 -108.81,-208.29 -108.81,-347.15 0,-333.68 207.25,-636.27 621.76,-906.73 329.54,-216.59 587.57,-324.36 776.18,-324.36 125.39,0 187.57,61.15 187.57,182.39 0,55.96 -17.62,120.21 -51.82,190.68l1083.94 -1815.55c66.32,20.73 132.65,31.08 196.89,31.08 16.59,0 79.8,-4.15 188.61,-12.43zm-1461.14 1627.98c0,-106.74 -49.75,-160.63 -149.23,-160.63 -181.34,0 -422.79,181.35 -721.24,545.08 -298.45,363.73 -447.67,656.99 -447.67,879.8 0,135.75 55.96,204.14 166.84,204.14 161.65,0 440.41,-281.87 835.23,-844.56 210.36,-304.67 316.07,-511.92 316.07,-623.83z"/>
  <path id="_17" class="fil1" d="M19799.63 3358.16c0,42.48 -148.19,239.38 -442.49,590.67 -238.34,288.08 -425.91,432.13 -563.74,432.13 -93.26,0 -168.91,-35.24 -226.94,-104.67 -59.06,-70.46 -88.08,-157.51 -88.08,-263.21 0,-108.81 32.13,-226.94 97.41,-354.4 -202.07,282.9 -356.47,474.61 -463.21,573.05 -107.77,99.48 -211.4,149.23 -312.95,149.23 -106.74,0 -196.89,-45.6 -269.43,-137.83 -72.54,-92.23 -108.81,-208.29 -108.81,-347.15 0,-388.6 273.57,-731.61 821.76,-1031.09 240.42,-133.68 434.19,-200.01 582.38,-200.01 125.39,0 187.57,61.15 187.57,182.39 0,35.23 -8.28,79.8 -23.83,136.79l154.41 -294.3c60.1,14.51 113.99,21.77 160.62,21.77 54.93,0 125.39,-7.26 212.44,-21.77l-535.76 889.12c-185.49,311.92 -278.75,517.1 -278.75,615.55 0,95.34 39.38,143.01 118.13,143.01 79.8,0 209.32,-93.27 386.53,-278.76 177.2,-186.52 357.51,-415.54 540.94,-688.08 12.43,-20.73 22.79,-31.08 33.16,-31.08 12.43,0 18.65,6.21 18.65,18.65zm-830.06 -500.52c0,-99.48 -45.59,-149.23 -136.79,-149.23 -186.52,0 -431.09,182.39 -733.67,547.16 -302.59,364.76 -453.89,659.06 -453.89,883.93 0,131.61 59.06,197.93 176.17,197.93 139.89,0 381.34,-232.12 726.42,-696.38 280.84,-380.31 421.76,-641.45 421.76,-783.42z"/>
  <path id="_18" class="fil1" d="M28233.85 460.75c0,10.36 -26.94,29.01 -81.86,58.03 -236.27,125.39 -444.56,305.7 -623.83,543 -180.31,236.27 -385.5,600 -615.55,1089.13 -335.75,711.91 -636.27,1223.83 -900.52,1535.75 -264.25,310.88 -589.64,534.72 -978.25,670.46 179.28,23.84 318.14,36.27 415.55,36.27 311.92,0 560.62,-66.32 748.19,-197.93 187.57,-132.64 451.81,-427.97 793.79,-888.08 22.8,-27.98 39.38,-42.48 51.81,-42.48 8.29,2.06 12.43,8.28 12.43,18.65 0,19.68 -95.34,150.26 -286.01,390.67 -233.16,294.3 -441.46,495.34 -623.83,602.07 -183.43,106.74 -409.33,160.63 -676.69,160.63 -165.8,0 -345.08,-17.62 -537.82,-52.85 -135.76,43.53 -274.62,65.28 -416.58,65.28 -106.74,0 -160.62,-19.68 -160.62,-59.06 0,-50.78 74.61,-75.65 224.87,-75.65 82.9,0 191.71,10.36 327.46,30.05l39.38 0c214.51,-76.68 396.9,-198.96 545.08,-365.8 149.22,-166.84 327.46,-448.71 535.75,-844.56 422.8,-803.11 758.56,-1372.02 1005.18,-1705.7 238.34,-319.17 525.39,-592.75 859.07,-819.69 167.88,-110.88 276.69,-166.84 324.35,-166.84 12.44,0 18.65,6.21 18.65,18.65zm1461.14 817.62c0,78.76 -8.28,154.4 -25.9,227.98 -17.62,73.58 -36.27,110.88 -53.88,110.88 -14.51,0 -21.77,-5.18 -21.77,-14.51 2.07,-8.29 4.15,-16.58 6.22,-24.87 30.05,-70.46 45.6,-165.81 45.6,-284.97 0,-269.43 -107.78,-497.41 -322.28,-684.98 -214.51,-187.57 -476.69,-280.83 -786.53,-280.83 -499.49,0 -1011.4,244.56 -1535.75,734.71 -207.26,191.71 -385.5,379.28 -534.72,560.62 -144.04,172.03 -424.88,535.76 -844.56,1092.23 -619.68,819.69 -1127.46,1331.61 -1524.35,1535.75 -178.24,91.2 -292.23,136.79 -343,136.79 -12.44,0 -18.65,-7.25 -18.65,-21.76 2.07,-2.07 22.8,-18.65 64.24,-48.7 197.93,-147.16 355.45,-346.12 473.58,-594.82 108.81,-229.02 305.7,-769.95 588.6,-1623.84 241.45,-728.5 517.1,-1250.78 826.94,-1565.8 11.4,-12.44 17.62,-22.8 17.62,-31.09 -25.9,-7.25 -86.01,36.27 -179.28,130.57 -300.51,300.52 -654.92,838.35 -1062.17,1615.55 -250.78,477.72 -470.47,840.42 -659.07,1086.01 -189.64,245.6 -414.51,462.18 -675.65,648.7 -429.01,307.77 -860.1,461.14 -1292.23,461.14 -281.86,0 -510.88,-59.06 -688.08,-177.2 -177.2,-118.13 -265.28,-270.47 -265.28,-456.99 0,-104.67 30.05,-193.79 91.19,-265.29 60.1,-71.5 136.79,-107.78 227.98,-107.78 131.61,0 196.89,64.25 196.89,193.79 0,66.32 -21.76,123.31 -64.24,169.94 -42.49,47.67 -94.3,71.5 -154.41,71.5 -99.48,0 -149.22,-53.88 -149.22,-162.69 0,-40.41 -8.29,-60.1 -24.87,-60.1 -32.13,0 -48.7,55.96 -48.7,166.84 0,164.77 82.9,300.52 247.67,407.26 164.77,105.7 376.16,158.55 635.23,158.55 528.5,0 1046.63,-274.62 1554.4,-822.81 204.14,-220.72 377.2,-435.23 519.18,-644.56 141.97,-209.33 423.83,-665.28 846.63,-1367.88 178.24,-297.41 379.28,-567.87 603.12,-810.36 222.8,-242.48 382.38,-364.76 477.72,-364.76 14.51,0 21.76,6.21 21.76,18.65 -2.07,8.28 -6.21,16.58 -12.43,24.87 -188.61,206.22 -358.55,595.85 -509.84,1167.87 -226.94,840.42 -440.41,1450.78 -641.45,1833.16 -197.93,373.07 -452.86,654.93 -764.78,846.64 -8.28,2.07 -12.43,6.22 -12.43,12.43 2.07,2.07 6.22,4.15 12.43,6.22 46.64,0 159.59,-64.25 339.9,-193.79 218.66,-154.4 420.73,-337.82 604.15,-552.33 184.46,-214.51 519.17,-653.88 1003.11,-1317.1 341.97,-468.39 613.47,-812.44 815.55,-1029.01 201.03,-217.62 423.83,-409.33 669.43,-575.14 382.38,-257 767.87,-385.49 1157.51,-385.49 339.9,0 619.69,98.44 839.39,296.37 219.69,197.92 329.53,449.74 329.53,754.41zm-4810.37 -170.99c0,44.56 -57,131.61 -173.06,261.14 -175.12,196.89 -343,295.33 -505.7,295.33 -111.92,0 -206.22,-41.45 -282.9,-123.31 -77.72,-81.86 -116.06,-182.39 -116.06,-301.55 0,-115.03 41.44,-253.89 124.35,-415.55 103.63,-202.07 155.44,-344.04 155.44,-426.94 0,-103.63 -48.7,-186.53 -146.11,-248.7 -96.37,-63.22 -223.83,-94.3 -381.34,-94.3 -451.82,0 -875.66,182.39 -1271.5,546.12 -396.9,364.76 -594.82,752.32 -594.82,1162.7 0,212.43 65.28,385.49 195.85,520.2 130.58,134.72 298.45,202.08 502.59,202.08 182.39,0 366.85,-51.82 554.41,-156.48 187.57,-103.63 338.86,-238.34 453.89,-402.08 8.28,-10.36 14.51,-15.54 18.65,-15.54 16.58,0 23.83,9.33 23.83,27.98 0,40.41 -64.25,118.13 -193.79,233.15 -267.35,241.46 -557.51,362.7 -869.43,362.7 -218.66,0 -397.93,-70.46 -535.75,-212.44 -137.83,-141.97 -206.23,-326.43 -206.23,-553.37 0,-439.37 203.11,-843.52 608.29,-1211.4 406.22,-368.91 849.74,-553.37 1331.61,-553.37 197.93,0 353.37,49.75 465.29,149.23 112.96,98.44 168.91,235.23 168.91,409.33 0,130.57 -64.25,327.46 -193.79,592.74 -44.56,93.27 -67.36,166.85 -67.36,221.76 0,154.41 82.9,231.09 249.74,231.09 99.48,0 210.36,-47.67 333.68,-143.01 123.31,-96.37 221.76,-213.47 297.42,-351.29 9.33,-20.73 19.68,-30.05 30.05,-30.05 16.58,0 23.83,7.25 23.83,23.83z"/>
  <path id="_19" class="fil1" d="M28784.11 3358.16c0,32.13 -60.1,107.77 -179.27,226.94 -178.24,178.24 -341.97,267.35 -491.2,267.35 -63.21,0 -119.17,-12.43 -166.84,-36.26 -267.35,376.16 -518.13,564.77 -752.33,564.77 -122.27,0 -225.9,-49.75 -311.91,-150.26 -86.01,-99.48 -128.5,-219.69 -128.5,-359.59 0,-310.88 204.14,-611.4 613.47,-900.52 288.09,-204.14 524.36,-305.7 710.88,-305.7 174.09,0 261.14,93.27 261.14,278.76 0,233.16 -122.28,513.99 -366.84,841.45 40.41,23.84 86.01,36.27 135.75,36.27 91.2,0 197.93,-42.48 318.14,-127.46 121.24,-84.98 219.68,-186.53 296.37,-305.7 22.79,-27.98 38.34,-42.49 48.7,-42.49 8.28,0 12.43,4.15 12.43,12.44zm-488.09 -409.33c0,-164.77 -73.58,-246.63 -221.76,-246.63 -184.45,0 -408.29,176.17 -673.57,528.5 -265.29,353.36 -397.93,649.74 -397.93,891.2 0,139.89 66.32,209.32 200,209.32 218.65,0 458.03,-180.31 717.1,-540.94 -59.07,-65.28 -88.08,-131.6 -88.08,-201.03 0,-98.45 39.38,-201.04 118.13,-306.74 78.76,-105.69 155.44,-157.51 231.09,-157.51 32.12,0 53.88,19.69 66.32,60.1 32.13,-70.46 48.7,-149.22 48.7,-236.27z"/>
  <path id="_20" class="fil1" d="M31547.85 1241.06c-758.56,1206.22 -1236.27,1977.2 -1434.21,2312.95 -200,341.97 -300.51,557.52 -300.51,646.64 0,91.19 41.45,136.79 124.35,136.79 184.46,0 497.41,-322.28 939.9,-966.85 12.44,-20.73 22.8,-31.08 33.17,-31.08 12.43,0 18.65,6.21 18.65,18.65 -2.07,6.22 -12.44,22.8 -31.09,48.7l-130.57 179.27c-383.42,529.54 -666.33,794.83 -849.74,794.83 -93.26,0 -168.91,-35.24 -227.99,-104.67 -59.06,-70.46 -88.08,-159.59 -88.08,-268.4 0,-109.84 36.27,-236.27 109.85,-380.31 -353.37,502.59 -616.58,753.38 -788.61,753.38 -106.74,0 -196.89,-45.6 -269.43,-137.83 -72.54,-92.23 -108.81,-208.29 -108.81,-347.15 0,-333.68 207.25,-636.27 621.76,-906.73 329.54,-216.59 587.57,-324.36 776.18,-324.36 125.39,0 187.57,61.15 187.57,182.39 0,55.96 -17.62,120.21 -51.82,190.68l1083.94 -1815.55c66.32,20.73 132.65,31.08 196.89,31.08 16.59,0 79.8,-4.15 188.61,-12.43zm-1461.14 1627.98c0,-106.74 -49.75,-160.63 -149.23,-160.63 -181.34,0 -422.79,181.35 -721.24,545.08 -298.45,363.73 -447.67,656.99 -447.67,879.8 0,135.75 55.96,204.14 166.84,204.14 161.65,0 440.41,-281.87 835.23,-844.56 210.36,-304.67 316.07,-511.92 316.07,-623.83z"/>
  <path id="_21" class="fil1" d="M33062.88 3358.16c0,42.48 -148.19,239.38 -442.49,590.67 -238.34,288.08 -425.91,432.13 -563.74,432.13 -93.26,0 -168.91,-35.24 -226.94,-104.67 -59.06,-70.46 -88.08,-157.51 -88.08,-263.21 0,-108.81 32.13,-226.94 97.41,-354.4 -202.07,282.9 -356.47,474.61 -463.21,573.05 -107.77,99.48 -211.4,149.23 -312.95,149.23 -106.74,0 -196.89,-45.6 -269.43,-137.83 -72.54,-92.23 -108.81,-208.29 -108.81,-347.15 0,-388.6 273.57,-731.61 821.76,-1031.09 240.42,-133.68 434.19,-200.01 582.38,-200.01 125.39,0 187.57,61.15 187.57,182.39 0,35.23 -8.28,79.8 -23.83,136.79l154.41 -294.3c60.1,14.51 113.99,21.77 160.62,21.77 54.93,0 125.39,-7.26 212.44,-21.77l-535.76 889.12c-185.49,311.92 -278.75,517.1 -278.75,615.55 0,95.34 39.38,143.01 118.13,143.01 79.8,0 209.32,-93.27 386.53,-278.76 177.2,-186.52 357.51,-415.54 540.94,-688.08 12.43,-20.73 22.79,-31.08 33.16,-31.08 12.43,0 18.65,6.21 18.65,18.65zm-830.06 -500.52c0,-99.48 -45.59,-149.23 -136.79,-149.23 -186.52,0 -431.09,182.39 -733.67,547.16 -302.59,364.76 -453.89,659.06 -453.89,883.93 0,131.61 59.06,197.93 176.17,197.93 139.89,0 381.34,-232.12 726.42,-696.38 280.84,-380.31 421.76,-641.45 421.76,-783.42z"/>
 </g>
</svg>
